HIERARCHY
ROOT Hips
{
  OFFSET 3.13124 94.3669 -3.18751
  CHANNELS  6 Xposition Yposition Zposition Zrotation Xrotation Yrotation
  JOINT LeftUpLeg
  {
    OFFSET 8.64259 1.95398 -2.38835
    CHANNELS 3 Zrotation Xrotation Yrotation
    JOINT LeftLeg
    {
      OFFSET 43.7702 0 0
      CHANNELS 3 Zrotation Xrotation Yrotation
      JOINT LeftFoot
      {
        OFFSET 40.6238 0 0
        CHANNELS 3 Zrotation Xrotation Yrotation
        JOINT LeftToeBase
        {
          OFFSET 12.7242 0 0
          CHANNELS 3 Zrotation Xrotation Yrotation
          End Site
          {
            OFFSET 0 0 0
          }
        }
      }
    }
  }
  JOINT RightUpLeg
  {
    OFFSET -8.2249 1.95398 -2.59336
    CHANNELS 3 Zrotation Xrotation Yrotation
    JOINT RightLeg
    {
      OFFSET 43.5653 0 0
      CHANNELS 3 Zrotation Xrotation Yrotation
      JOINT RightFoot
      {
        OFFSET 40.6238 0 0
        CHANNELS 3 Zrotation Xrotation Yrotation
        JOINT RightToeBase
        {
          OFFSET 12.7242 0 0
          CHANNELS 3 Zrotation Xrotation Yrotation
          End Site
          {
            OFFSET 0 0 0
          }
        }
      }
    }
  }
  JOINT Spine
  {
    OFFSET 0.165834 0.87714 6.61349
    CHANNELS 3 Zrotation Xrotation Yrotation
    JOINT Spine1
    {
      OFFSET 7.38962 1.71661e-005 0
      CHANNELS 3 Zrotation Xrotation Yrotation
      JOINT Spine2
      {
        OFFSET 11.9445 1.14441e-005 0
        CHANNELS 3 Zrotation Xrotation Yrotation
        JOINT Spine3
        {
          OFFSET 14.7254 4.19617e-005 0
          CHANNELS 3 Zrotation Xrotation Yrotation
          JOINT Spine4
          {
            OFFSET 10.9679 0 0
            CHANNELS 3 Zrotation Xrotation Yrotation
            JOINT RightShoulder
            {
              OFFSET 2.46616 -1.6653 3.69651
              CHANNELS 3 Zrotation Xrotation Yrotation
              JOINT RightArm
              {
                OFFSET 13.0012 0 0
                CHANNELS 3 Zrotation Xrotation Yrotation
                JOINT RightForeArm
                {
                  OFFSET 28.7848 1.52588e-005 0
                  CHANNELS 3 Zrotation Xrotation Yrotation
                  JOINT RightHand
                  {
                    OFFSET 26.5688 1.52588e-005 0
                    CHANNELS 3 Zrotation Xrotation Yrotation
                    End Site
                    {
                      OFFSET 0 0 0
                    }
                  }
                }
              }
            }
            JOINT LeftShoulder
            {
              OFFSET 2.38034 -1.29275 -3.75231
              CHANNELS 3 Zrotation Xrotation Yrotation
              JOINT LeftArm
              {
                OFFSET 16.3182 6.10352e-005 0
                CHANNELS 3 Zrotation Xrotation Yrotation
                JOINT LeftForeArm
                {
                  OFFSET 27.0901 0 0
                  CHANNELS 3 Zrotation Xrotation Yrotation
                  JOINT LeftHand
                  {
                    OFFSET 24.5451 1.52588e-005 0
                    CHANNELS 3 Zrotation Xrotation Yrotation
                    End Site
                    {
                      OFFSET 0 0 0
                    }
                  }
                }
              }
            }
            JOINT Neck
            {
              OFFSET 5.0226 -0.0266342 0
              CHANNELS 3 Zrotation Xrotation Yrotation
              JOINT Head
              {
                OFFSET 6.69363 2.86102e-005 0
                CHANNELS 3 Zrotation Xrotation Yrotation
                End Site
                {
                  OFFSET 0 0 0
                }
              }
            }
          }
        }
      }
    }
  }
}
MOTION
Frames:	14
Frame Time:	0.0333333
5.49294 95.7804 -2.22978 117.395 -89.9993 117.398 179.447 1.87834 88.8516 -7.55741 -0.749177 -0.0260391 62.69 1.33405 0.674934 28.7808 6.26875e-006 9.84626e-006 179.628 1.81875 89.3502 -7.43614 -0.259324 -0.0220638 62.6468 -1.13999 -0.576898 28.7808 1.35792e-005 1.95737e-005 0.00022846 6.34059 -90.0032 14.1935 0.0050767 -1.68084e-006 2.52251 0.00371851 -7.97339e-006 -20.0126 0.0132474 -6.44323e-007 1.59028e-015 0.0132502 4.65902e-018 101.174 -17.9049 -84.6536 -2.22722 26.2793 -10.3636 -5.71251 -27.6618 -7.68767 1.25988 0.065991 0.605516 -78.8797 -21.0235 94.5289 11.9548 -28.5134 -8.42442 5.08082 28.8481 -8.30686 -1.69211 -0.0576787 1.15787 1.75635 0.00117237 -0.000886997 -7.40826 0.00143355 0.0031163 
5.50424 95.7616 -2.23581 92.3053 -89.9916 92.3441 179.513 2.87924 88.906 -9.58064 -0.657031 -0.0260386 63.3843 1.24559 0.640875 28.7808 6.26875e-006 9.84626e-006 179.618 1.9826 89.3754 -7.76196 -0.335827 -0.022064 62.7935 -1.05548 -0.528285 28.7808 1.35792e-005 1.95737e-005 0.00335434 6.34045 -90.0422 14.1935 0.0050767 -1.68084e-006 2.52251 0.00371851 -7.97339e-006 -20.0126 0.0132474 -6.44323e-007 -8.97868e-022 0.0132502 3.88251e-018 101.164 -17.9157 -84.6394 -2.23806 26.1611 -10.7711 -5.29624 -27.5348 -6.83083 1.05432 0.050623 0.256855 -78.8894 -21.0286 94.5416 11.9354 -28.5415 -8.35196 5.19597 28.945 -8.52571 -1.78257 -0.0617622 1.23862 1.80314 0.0192764 -0.0190374 -7.37428 0.0226227 0.054111 
5.51718 95.7663 -2.23901 -90.7465 -89.99 -90.6988 179.501 2.69424 88.8961 -9.21443 -0.72917 -0.026039 63.2695 1.25436 0.643619 28.7808 6.26875e-006 9.84626e-006 179.62 1.88239 89.3734 -7.55784 -0.353538 -0.022064 62.7037 -1.11259 -0.560224 28.7808 1.35792e-005 1.95737e-005 0.00290734 6.34049 -90.0368 14.1935 0.0050767 -1.68084e-006 2.52251 0.00371851 -7.97339e-006 -20.0126 0.0132474 -6.44323e-007 -3.18056e-015 0.0132502 5.82377e-018 101.132 -17.949 -84.6742 -2.25544 26.0397 -11.169 -4.89275 -27.5586 -5.96338 0.862271 0.0387284 0.0198998 -78.8983 -21.0268 94.5701 11.9181 -28.7642 -7.72608 5.99361 29.2694 -10.0781 -2.39743 -0.0917846 1.8842 1.91505 0.030283 -0.086828 -7.46019 0.0197257 0.111824 
5.52999 95.7724 -2.24549 -46.1897 -89.9914 -46.1254 179.51 2.8286 88.9112 -9.4701 -0.671672 -0.0260386 63.3319 1.2323 0.633063 28.7808 6.26875e-006 9.84626e-006 179.615 1.72347 89.3801 -7.20949 -0.36468 -0.0220641 62.5353 -1.10856 -0.554404 28.7808 1.35792e-005 1.95737e-005 0.00424265 6.34037 -90.0533 14.1935 0.0050767 -1.68084e-006 2.52251 0.00371851 -7.97339e-006 -20.0126 0.0132474 -6.44323e-007 -5.38721e-022 0.0132502 2.32951e-018 101.134 -17.9171 -84.7202 -2.1391 26.3154 -10.2967 -5.86861 -27.6446 -8.04636 1.3964 0.0772236 0.859843 -78.8807 -21.0715 94.5729 11.937 -28.7199 -7.94108 5.7772 29.2347 -9.64973 -2.29377 -0.0865314 1.70097 1.94984 0.0488786 -0.0124882 -7.48116 0.0190064 0.0264391 
5.54683 95.7835 -2.24706 -7.32191 -89.9836 -7.26647 179.485 2.58196 88.8849 -8.93446 -0.756132 -0.0260391 63.1203 1.25986 0.644653 28.7808 6.26875e-006 9.84626e-006 179.615 1.64991 89.3646 -7.03177 -0.309491 -0.0220639 62.4368 -1.10499 -0.551372 28.7808 1.35792e-005 1.95737e-005 0.00329544 6.34046 -90.0413 14.1935 0.0050767 -1.68084e-006 2.52251 0.00371851 -7.97339e-006 -20.0126 0.0132474 -6.44323e-007 1.59028e-015 0.0132502 1.94126e-018 101.159 -17.9278 -84.7418 -2.19223 26.0478 -11.0806 -4.99015 -27.4992 -6.18003 0.979739 0.0426336 -0.0620948 -78.8313 -21.0782 94.6083 11.9135 -28.4484 -8.82697 4.81795 29.1421 -7.72239 -1.62236 -0.0560483 0.872239 2.03552 0.0431293 -0.0659608 -7.59987 0.0189565 0.0985049 
5.56226 95.7678 -2.24646 -2.90592 -89.9777 -2.82737 179.515 3.02358 88.9062 -9.83179 -0.679691 -0.0260387 63.432 1.21487 0.625094 28.7808 6.26875e-006 9.84626e-006 179.609 1.86976 89.3765 -7.47582 -0.335049 -0.022064 62.6304 -1.15229 -0.581392 28.7808 1.35792e-005 1.95737e-005 0.00463771 6.34033 -90.0581 14.1935 0.0050767 -1.68084e-006 2.52251 0.00371851 -7.97339e-006 -20.0126 0.0132474 -6.44323e-007 6.28507e-022 0.0132502 -2.71776e-018 101.18 -17.9183 -84.7361 -2.17436 25.8755 -11.6489 -4.44715 -27.3975 -5.0154 0.666489 0.0244125 -0.46064 -78.8001 -21.0933 94.6465 11.8694 -28.4614 -8.94309 4.81012 29.109 -7.71152 -1.67275 -0.0583704 0.899656 2.11976 0.0597163 -0.0413703 -7.73417 0.0185123 0.044215 
5.57749 95.7761 -2.24413 122.406 -89.9858 122.467 179.496 2.71409 88.8812 -9.26304 -0.642909 -0.0260385 63.2629 1.2545 0.643646 28.7808 6.26875e-006 9.84626e-006 179.605 1.87474 89.3475 -7.55298 -0.363995 -0.0220641 62.6364 -1.07242 -0.535812 28.7808 1.35792e-005 1.95737e-005 0.00307193 6.34047 -90.0388 14.1935 0.0050767 -1.68084e-006 2.52251 0.00371851 -7.97339e-006 -20.0126 0.0132474 -6.44323e-007 -1.59028e-015 0.0132502 6.98852e-018 101.171 -17.9057 -84.7443 -2.14609 25.8742 -11.6596 -4.46133 -27.3482 -5.04808 0.657296 0.0241161 -0.455284 -78.8127 -21.0987 94.6332 11.8289 -28.4579 -8.9901 4.8027 29.0522 -7.70692 -1.6539 -0.0585802 0.940326 2.20481 0.0683012 0.0140566 -7.91886 0.0166314 -0.0554377 
5.59438 95.777 -2.24668 160.035 -89.9664 160.115 179.492 2.63648 88.8823 -9.15148 -0.692655 -0.0260388 63.2373 1.29838 0.668627 28.7808 6.26875e-006 9.84626e-006 179.61 1.76746 89.3512 -7.38067 -0.303352 -0.0220639 62.5773 -1.16656 -0.589741 28.7808 1.35792e-005 1.95737e-005 0.00313717 6.34047 -90.0398 14.1935 0.0050767 -1.68084e-006 2.52251 0.00371851 -7.97339e-006 -20.0126 0.0132474 -6.44323e-007 -1.43659e-021 0.0132502 6.21202e-018 101.148 -17.9067 -84.7287 -2.11451 25.8742 -11.7237 -4.46214 -27.333 -5.04779 0.673133 0.0240497 -0.429894 -78.8328 -21.0897 94.6495 11.8198 -28.4357 -9.11191 4.70651 29.0531 -7.50833 -1.64688 -0.0581231 0.818417 2.16492 0.0520348 -0.038032 -7.86372 0.0109574 -0.00462246 
5.61627 95.8024 -2.25284 135.05 -89.9705 135.173 179.495 2.77444 88.9135 -9.39654 -0.650011 -0.0260385 63.2311 1.26257 0.651283 28.7808 6.26875e-006 9.84626e-006 179.606 0.896847 89.3963 -5.53874 -0.269882 -0.0220639 61.7142 -1.11181 -0.541588 28.7808 1.35792e-005 1.95737e-005 0.00709057 6.33997 -90.0892 14.1935 0.0050767 -1.68084e-006 2.52251 0.00371851 -7.97339e-006 -20.0126 0.0132474 -6.44323e-007 -3.18056e-015 0.0132502 6.21202e-018 101.167 -17.8579 -84.7713 -2.09943 25.8619 -11.6944 -4.46389 -27.3351 -5.04807 0.716594 0.0242676 -0.385687 -78.8198 -21.0854 94.6016 11.8165 -28.4305 -9.09173 4.70712 29.0252 -7.51353 -1.60574 -0.0571749 0.855736 2.23063 0.0354957 0.0286069 -7.95143 -0.0117506 -0.0772768 
5.63608 95.8272 -2.25418 161.066 -89.9717 161.144 179.43 1.82098 88.8637 -7.45057 -0.703843 -0.0260388 62.5587 1.35766 0.691501 28.7808 6.26875e-006 9.84626e-006 179.602 0.842747 89.3287 -5.44428 -0.32932 -0.022064 61.6451 -1.08103 -0.524332 28.7808 1.35792e-005 1.95737e-005 0.00285818 6.34049 -90.0365 14.1935 0.0050767 -1.68084e-006 2.52251 0.00371851 -7.97339e-006 -20.0126 0.0132474 -6.44323e-007 -1.59028e-015 0.0132502 7.76503e-018 101.173 -17.8516 -84.752 -2.10403 25.8672 -11.7106 -4.47405 -27.4289 -5.05234 0.732445 0.0247202 -0.450377 -78.8262 -21.0623 94.5977 11.8329 -28.4342 -9.04921 4.72521 29.0274 -7.54721 -1.62895 -0.0559204 0.785675 2.1522 0.0420792 0.0118048 -7.80973 -0.0273755 -0.0328707 
5.65594 95.8136 -2.26495 92.1161 -89.9919 92.211 179.455 2.33948 88.8626 -8.44212 -0.723526 -0.0260389 62.884 1.31649 0.674433 28.7808 6.26875e-006 9.84626e-006 179.592 0.877967 89.3278 -5.44154 -0.364846 -0.0220641 61.6903 -1.0177 -0.487272 28.7808 1.35792e-005 1.95737e-005 0.00425704 6.34037 -90.0534 14.1935 0.0050767 -1.68084e-006 2.52251 0.00371851 -7.97339e-006 -20.0126 0.0132474 -6.44323e-007 1.43659e-021 0.0132502 -6.21202e-018 101.189 -17.8805 -84.7514 -2.13728 25.8843 -11.7265 -4.4639 -27.325 -5.04739 0.664366 0.0253595 -0.344792 -78.8092 -21.0358 94.59 11.8552 -28.4205 -9.08343 4.66905 29.0433 -7.42644 -1.5895 -0.0545382 0.774033 2.10793 0.0229425 -0.0239832 -7.67113 -0.0239812 0.0255731 
5.68252 95.7965 -2.27281 -122.259 -89.9735 -122.098 179.499 3.03568 88.913 -9.89571 -0.744941 -0.0260391 63.3855 1.22737 0.634512 28.7808 6.26875e-006 9.84626e-006 179.595 0.960519 89.3836 -5.62368 -0.31682 -0.0220139 61.7392 -1.05811 -0.509612 28.7808 1.35792e-005 1.95737e-005 0.00810513 6.33978 -90.1014 14.1935 0.0050767 -1.68084e-006 2.52251 0.00371851 -7.97339e-006 -20.0126 0.0132474 -6.44323e-007 -1.59028e-015 0.0132502 7.08559e-018 101.16 -17.9191 -84.7599 -2.14587 25.8905 -11.7393 -4.46502 -27.34 -5.04772 0.610389 0.0261356 -0.304453 -78.8324 -20.9668 94.6087 11.8455 -28.4294 -9.03485 4.6908 28.8513 -7.51263 -1.61311 -0.0532103 0.73953 2.21787 0.0673089 -0.100935 -7.83797 -0.0159099 0.0817878 
5.69765 95.8098 -2.28268 -35.6991 -89.9699 -35.5751 179.465 2.6194 88.8684 -8.94485 -0.731166 -0.0254131 63.0521 1.3092 0.673968 28.7808 6.26875e-006 9.84626e-006 179.59 0.943268 89.3401 -5.49143 -0.295198 -0.0204219 61.6699 -1.12304 -0.549078 28.7808 1.35792e-005 1.95737e-005 0.00552886 6.34022 -90.0686 14.1935 0.0050767 -1.68084e-006 2.52251 0.00371851 -7.97339e-006 -20.0126 0.0132474 -6.44323e-007 -1.61616e-021 0.0132502 6.98852e-018 101.179 -17.9591 -84.7316 -2.18094 25.9065 -11.7457 -4.47004 -27.3988 -5.04994 0.761775 0.0269994 -0.313205 -78.8271 -20.9315 94.5913 11.839 -28.4411 -8.97443 4.75512 28.8864 -7.63311 -1.62346 -0.0521163 0.778021 2.19586 0.0507565 -0.133107 -7.75721 -0.00442068 0.101846 
5.71812 95.8095 -2.29125 -31.6363 -89.9458 -31.5194 179.468 2.50033 88.8703 -8.64294 -0.562014 -0.0168589 62.9415 1.28666 0.657767 28.7808 6.26875e-006 9.84626e-006 179.6 0.934456 89.3383 -5.39931 -0.0929378 -0.008833 61.6408 -1.24706 -0.624093 28.7808 1.35792e-005 1.95737e-005 0.00418812 6.34038 -90.0516 14.1935 0.0050767 -1.68084e-006 2.52251 0.00371851 -7.97339e-006 -20.0126 0.0132474 -6.44323e-007 1.59027e-015 0.0132502 1.12593e-017 101.168 -17.9853 -84.7233 -2.14651 25.897 -11.7692 -4.46467 -27.3572 -5.04745 0.713887 0.0279022 -0.294681 -78.8416 -20.9061 94.5919 11.8536 -28.4082 -9.0838 4.61687 28.8088 -7.3664 -1.57808 -0.0514402 0.627897 2.27274 0.044361 -0.158144 -7.9064 -0.0206011 0.104085 
